<svg width="55" height="55" viewBox="0 0 55 55" fill="none" xmlns="http://www.w3.org/2000/svg">
<path fill-rule="evenodd" clip-rule="evenodd" d="M33.0787 31.6241L44.4112 31.6593V29.5195C42.4434 29.5204 40.4759 29.5221 38.5081 29.5218C36.6045 29.5218 32.7314 29.2362 31.0728 29.6362L31.0926 54.7942H33.006L33.0696 42.8193L42.9834 42.8207L42.9411 40.7344L33.0148 40.7417L33.0787 31.6241Z" fill="white"/>
<path fill-rule="evenodd" clip-rule="evenodd" d="M21.9336 2.44657C22.9262 2.12475 28.099 2.23349 29.3487 2.35428C31.6503 2.57647 33.4674 3.9263 33.3062 7.29992C33.1542 10.476 31.5288 11.8711 29.3358 12.1535C28.0764 12.3154 23.0867 12.3845 21.9536 12.1162L21.9336 2.44657ZM32.1599 13.3397C33.1568 12.4841 33.5358 12.4221 34.3055 11.2942C36.0468 8.74233 35.6128 3.37293 33.1135 1.43822C30.9454 -0.239901 22.9314 -0.140276 19.9175 0.210951L19.9425 26.1154L21.9312 26.0252L22.024 14.2963C24.1804 14.3515 29.8867 13.7461 31.3749 15.2573C33.0651 16.9736 32.1688 22.9834 33.2818 26.1287L35.463 26.0634C35.24 24.9545 34.9005 24.6601 34.7618 22.8235C34.3463 17.3266 35.0268 15.8277 32.1599 13.3397Z" fill="white"/>
<path fill-rule="evenodd" clip-rule="evenodd" d="M0.0492096 54.8496L12.6532 54.8426L12.6678 52.7021L1.94767 52.7162L1.9179 29.4444L0 29.4174L0.0492096 54.8496Z" fill="white"/>
<path fill-rule="evenodd" clip-rule="evenodd" d="M22.2911 33.836C24.6199 37.8823 25.7067 51.1427 17.4133 52.9028L17.4045 55C28.7581 54.2826 28.8244 28.8818 17.3872 28.4146L17.4336 30.2922C18.1415 30.7819 19.2418 30.7868 20.2815 31.5848C21.0574 32.1802 21.813 33.0054 22.2911 33.836Z" fill="white"/>
<path fill-rule="evenodd" clip-rule="evenodd" d="M9.19358 17.9715L14.0012 18.01L16.4794 26.1093L18.3669 26.1528C18.2445 24.8056 16.9031 21.1723 16.4548 19.6134L10.431 0.178415L9.19918 0.258911C9.08695 3.01124 10.3036 5.93631 11.0389 8.35886C11.4089 9.57706 13.1671 14.9955 13.1724 15.8804L9.1709 15.8925L9.19358 17.9715Z" fill="white"/>
<path fill-rule="evenodd" clip-rule="evenodd" d="M36.9736 2.97433L44.0072 2.99638L43.9901 54.8171L45.9587 54.8036L45.9883 2.95378L55.0006 3.02344L54.9775 0.874493C50.0792 1.08373 44.9625 0.836277 40.0301 0.838326L36.9736 0.840103V2.97433Z" fill="white"/>
</svg>
